<?xml version="1.0" encoding="utf-8"?>
<!-- Generator: Adobe Illustrator 15.0.0, SVG Export Plug-In . SVG Version: 6.00 Build 0)  -->
<!DOCTYPE svg PUBLIC "-//W3C//DTD SVG 1.1//EN" "http://www.w3.org/Graphics/SVG/1.1/DTD/svg11.dtd">
<svg version="1.1" id="Ebene_1" xmlns="http://www.w3.org/2000/svg" xmlns:xlink="http://www.w3.org/1999/xlink" x="0px" y="0px"
	 width="36px" height="32px" viewBox="0 0 36 32" enable-background="new 0 0 36 32" xml:space="preserve">
<title>users</title>
<path fill="#FFFFFF" d="M24,24.082v-1.648c2.203-1.242,4-4.338,4-7.433c0-4.971,0-9-6-9s-6,4.029-6,9c0,3.097,1.797,6.19,4,7.433
	v1.648C13.216,24.637,8,27.97,8,32h28C36,27.97,30.784,24.636,24,24.082z"/>
<path fill="#FFFFFF" d="M10.225,24.854c1.728-1.129,3.877-1.988,6.243-2.513c-0.47-0.556-0.897-1.176-1.265-1.844
	C14.253,18.771,13.75,16.87,13.75,15c0-2.689,0-5.228,0.956-7.305c0.928-2.016,2.598-3.265,4.976-3.734C19.152,1.571,17.746,0,14,0
	C8,0,8,4.029,8,9c0,3.096,1.797,6.191,4,7.432v1.649c-6.784,0.555-12,3.888-12,7.918h8.719C9.173,25.596,9.675,25.212,10.225,24.854
	L10.225,24.854z"/>
</svg>
